<svg xmlns="http://www.w3.org/2000/svg" viewBox="0 0 640 400" width="640" height="400">
  <defs>
    <linearGradient id="cty-bg" x1="0%" y1="0%" x2="100%" y2="100%">
      <stop offset="0%" stop-color="#1a1f2d"/>
      <stop offset="100%" stop-color="#0d1219"/>
    </linearGradient>
    <filter id="cty-shadow">
      <feDropShadow dx="0" dy="4" stdDeviation="8" flood-color="rgba(0,0,0,0.5)"/>
    </filter>
  </defs>
  <rect width="640" height="400" fill="url(#cty-bg)"/>
<ellipse cx="320" cy="372" rx="200" ry="12" fill="rgba(0,0,0,0.3)"/>
  <!-- Tire -->
  <circle cx="148" cy="290" r="88" fill="none" stroke="#1c1c1c" stroke-width="6"/>
  <!-- Rim -->
  <circle cx="148" cy="290" r="84" fill="none" stroke="#2980b9" stroke-width="3"/>
  <line x1="155.0" y1="290.0" x2="232.0" y2="290.0" stroke="#888" stroke-width="1.5"/>
<line x1="154.3" y1="293.0" x2="223.7" y2="326.4" stroke="#888" stroke-width="1.5"/>
<line x1="152.4" y1="295.5" x2="200.4" y2="355.7" stroke="#888" stroke-width="1.5"/>
<line x1="149.6" y1="296.8" x2="166.7" y2="371.9" stroke="#888" stroke-width="1.5"/>
<line x1="146.4" y1="296.8" x2="129.3" y2="371.9" stroke="#888" stroke-width="1.5"/>
<line x1="143.6" y1="295.5" x2="95.6" y2="355.7" stroke="#888" stroke-width="1.5"/>
<line x1="141.7" y1="293.0" x2="72.3" y2="326.4" stroke="#888" stroke-width="1.5"/>
<line x1="141.0" y1="290.0" x2="64.0" y2="290.0" stroke="#888" stroke-width="1.5"/>
<line x1="141.7" y1="287.0" x2="72.3" y2="253.6" stroke="#888" stroke-width="1.5"/>
<line x1="143.6" y1="284.5" x2="95.6" y2="224.3" stroke="#888" stroke-width="1.5"/>
<line x1="146.4" y1="283.2" x2="129.3" y2="208.1" stroke="#888" stroke-width="1.5"/>
<line x1="149.6" y1="283.2" x2="166.7" y2="208.1" stroke="#888" stroke-width="1.5"/>
<line x1="152.4" y1="284.5" x2="200.4" y2="224.3" stroke="#888" stroke-width="1.5"/>
<line x1="154.3" y1="287.0" x2="223.7" y2="253.6" stroke="#888" stroke-width="1.5"/>
  <!-- Hub -->
  <circle cx="148" cy="290" r="7" fill="#2980b9"/>
  <circle cx="148" cy="290" r="5" fill="#ddd"/>

  <!-- Tire -->
  <circle cx="490" cy="290" r="88" fill="none" stroke="#1c1c1c" stroke-width="6"/>
  <!-- Rim -->
  <circle cx="490" cy="290" r="84" fill="none" stroke="#2980b9" stroke-width="3"/>
  <line x1="497.0" y1="290.0" x2="574.0" y2="290.0" stroke="#888" stroke-width="1.5"/>
<line x1="496.3" y1="293.0" x2="565.7" y2="326.4" stroke="#888" stroke-width="1.5"/>
<line x1="494.4" y1="295.5" x2="542.4" y2="355.7" stroke="#888" stroke-width="1.5"/>
<line x1="491.6" y1="296.8" x2="508.7" y2="371.9" stroke="#888" stroke-width="1.5"/>
<line x1="488.4" y1="296.8" x2="471.3" y2="371.9" stroke="#888" stroke-width="1.5"/>
<line x1="485.6" y1="295.5" x2="437.6" y2="355.7" stroke="#888" stroke-width="1.5"/>
<line x1="483.7" y1="293.0" x2="414.3" y2="326.4" stroke="#888" stroke-width="1.5"/>
<line x1="483.0" y1="290.0" x2="406.0" y2="290.0" stroke="#888" stroke-width="1.5"/>
<line x1="483.7" y1="287.0" x2="414.3" y2="253.6" stroke="#888" stroke-width="1.5"/>
<line x1="485.6" y1="284.5" x2="437.6" y2="224.3" stroke="#888" stroke-width="1.5"/>
<line x1="488.4" y1="283.2" x2="471.3" y2="208.1" stroke="#888" stroke-width="1.5"/>
<line x1="491.6" y1="283.2" x2="508.7" y2="208.1" stroke="#888" stroke-width="1.5"/>
<line x1="494.4" y1="284.5" x2="542.4" y2="224.3" stroke="#888" stroke-width="1.5"/>
<line x1="496.3" y1="287.0" x2="565.7" y2="253.6" stroke="#888" stroke-width="1.5"/>
  <!-- Hub -->
  <circle cx="490" cy="290" r="7" fill="#2980b9"/>
  <circle cx="490" cy="290" r="5" fill="#ddd"/>
<path d="M66.6,243.0 A94,94 0 0,1 236.3,322.1" fill="none" stroke="#2980b9" stroke-width="7" stroke-linecap="round"/><path d="M397.4,273.7 A94,94 0 1,1 578.3,322.1" fill="none" stroke="#2980b9" stroke-width="7" stroke-linecap="round"/><line x1="168" y1="212" x2="305" y2="188" stroke="#2980b9" stroke-width="5" stroke-linecap="round"/><line x1="153" y1="207" x2="203" y2="207" stroke="#2980b9" stroke-width="5" stroke-linecap="round"/><line x1="315" y1="290" x2="295" y2="158" stroke="#2980b9" stroke-width="9" stroke-linecap="round"/><line x1="295" y1="158" x2="470" y2="200" stroke="#2980b9" stroke-width="9" stroke-linecap="round"/><line x1="315" y1="290" x2="480" y2="238" stroke="#2980b9" stroke-width="9" stroke-linecap="round"/><line x1="148" y1="290" x2="315" y2="290" stroke="#2980b9" stroke-width="8" stroke-linecap="round"/><line x1="148" y1="290" x2="295" y2="158" stroke="#2980b9" stroke-width="7" stroke-linecap="round"/><line x1="470" y1="200" x2="480" y2="238" stroke="#2980b9" stroke-width="8" stroke-linecap="round"/>
  <circle cx="315" cy="290" r="20" fill="none" stroke="#2980b9" stroke-width="5"/>
  <circle cx="315" cy="290" r="12" fill="none" stroke="#2980b9" stroke-width="2.5"/>
  <circle cx="315" cy="290" r="5" fill="#2980b9"/><line x1="315" y1="290" x2="148" y2="290" stroke="#666" stroke-width="3" stroke-dasharray="4,3"/><line x1="295" y1="158" x2="293" y2="132" stroke="#555" stroke-width="7" stroke-linecap="round"/>
  <g transform="translate(291,130) rotate(-4)">
    <rect x="-22" y="-5" width="44" height="9" rx="4" fill="#333"/>
    <rect x="-18" y="-8" width="36" height="6" rx="3" fill="#555"/>
  </g><line x1="470" y1="200" x2="482" y2="174" stroke="#555" stroke-width="6" stroke-linecap="round"/>
  <!-- Upright handlebar -->
  <line x1="462" y1="182" x2="502" y2="182" stroke="#444" stroke-width="6" stroke-linecap="round"/>
  <path d="M462,182 Q460,176 466,174" fill="none" stroke="#444" stroke-width="5" stroke-linecap="round"/>
  <path d="M502,182 Q504,176 498,174" fill="none" stroke="#444" stroke-width="5" stroke-linecap="round"/>
  <line x1="482" y1="174" x2="482" y2="198" stroke="#444" stroke-width="5" stroke-linecap="round"/><text x="320" y="395" text-anchor="middle" fill="rgba(255,255,255,0.5)" font-size="13" font-family="Arial" font-weight="bold">CITY BIKE</text>
</svg>