<svg xmlns="http://www.w3.org/2000/svg" viewBox="0 0 640 400" width="640" height="400">
  <defs>
    <linearGradient id="elc-bg" x1="0%" y1="0%" x2="100%" y2="100%">
      <stop offset="0%" stop-color="#1a0d2d"/>
      <stop offset="100%" stop-color="#0d0719"/>
    </linearGradient>
    <filter id="elc-shadow">
      <feDropShadow dx="0" dy="4" stdDeviation="8" flood-color="rgba(0,0,0,0.5)"/>
    </filter>
  </defs>
  <rect width="640" height="400" fill="url(#elc-bg)"/>
<ellipse cx="320" cy="370" rx="200" ry="12" fill="rgba(0,0,0,0.3)"/>
  <!-- Tire -->
  <circle cx="148" cy="288" r="90" fill="none" stroke="#1c1c1c" stroke-width="7"/>
  <!-- Rim -->
  <circle cx="148" cy="288" r="85" fill="none" stroke="#9b59b6" stroke-width="3"/>
  <line x1="156.0" y1="288.0" x2="233.0" y2="288.0" stroke="#888" stroke-width="1.5"/>
<line x1="155.2" y1="291.5" x2="224.6" y2="324.9" stroke="#888" stroke-width="1.5"/>
<line x1="153.0" y1="294.3" x2="201.0" y2="354.5" stroke="#888" stroke-width="1.5"/>
<line x1="149.8" y1="295.8" x2="166.9" y2="370.9" stroke="#888" stroke-width="1.5"/>
<line x1="146.2" y1="295.8" x2="129.1" y2="370.9" stroke="#888" stroke-width="1.5"/>
<line x1="143.0" y1="294.3" x2="95.0" y2="354.5" stroke="#888" stroke-width="1.5"/>
<line x1="140.8" y1="291.5" x2="71.4" y2="324.9" stroke="#888" stroke-width="1.5"/>
<line x1="140.0" y1="288.0" x2="63.0" y2="288.0" stroke="#888" stroke-width="1.5"/>
<line x1="140.8" y1="284.5" x2="71.4" y2="251.1" stroke="#888" stroke-width="1.5"/>
<line x1="143.0" y1="281.7" x2="95.0" y2="221.5" stroke="#888" stroke-width="1.5"/>
<line x1="146.2" y1="280.2" x2="129.1" y2="205.1" stroke="#888" stroke-width="1.5"/>
<line x1="149.8" y1="280.2" x2="166.9" y2="205.1" stroke="#888" stroke-width="1.5"/>
<line x1="153.0" y1="281.7" x2="201.0" y2="221.5" stroke="#888" stroke-width="1.5"/>
<line x1="155.2" y1="284.5" x2="224.6" y2="251.1" stroke="#888" stroke-width="1.5"/>
  <!-- Hub -->
  <circle cx="148" cy="288" r="8" fill="#9b59b6"/>
  <circle cx="148" cy="288" r="6" fill="#ddd"/>

  <!-- Tire -->
  <circle cx="490" cy="288" r="90" fill="none" stroke="#1c1c1c" stroke-width="7"/>
  <!-- Rim -->
  <circle cx="490" cy="288" r="85" fill="none" stroke="#9b59b6" stroke-width="3"/>
  <line x1="498.0" y1="288.0" x2="575.0" y2="288.0" stroke="#888" stroke-width="1.5"/>
<line x1="497.2" y1="291.5" x2="566.6" y2="324.9" stroke="#888" stroke-width="1.5"/>
<line x1="495.0" y1="294.3" x2="543.0" y2="354.5" stroke="#888" stroke-width="1.5"/>
<line x1="491.8" y1="295.8" x2="508.9" y2="370.9" stroke="#888" stroke-width="1.5"/>
<line x1="488.2" y1="295.8" x2="471.1" y2="370.9" stroke="#888" stroke-width="1.5"/>
<line x1="485.0" y1="294.3" x2="437.0" y2="354.5" stroke="#888" stroke-width="1.5"/>
<line x1="482.8" y1="291.5" x2="413.4" y2="324.9" stroke="#888" stroke-width="1.5"/>
<line x1="482.0" y1="288.0" x2="405.0" y2="288.0" stroke="#888" stroke-width="1.5"/>
<line x1="482.8" y1="284.5" x2="413.4" y2="251.1" stroke="#888" stroke-width="1.5"/>
<line x1="485.0" y1="281.7" x2="437.0" y2="221.5" stroke="#888" stroke-width="1.5"/>
<line x1="488.2" y1="280.2" x2="471.1" y2="205.1" stroke="#888" stroke-width="1.5"/>
<line x1="491.8" y1="280.2" x2="508.9" y2="205.1" stroke="#888" stroke-width="1.5"/>
<line x1="495.0" y1="281.7" x2="543.0" y2="221.5" stroke="#888" stroke-width="1.5"/>
<line x1="497.2" y1="284.5" x2="566.6" y2="251.1" stroke="#888" stroke-width="1.5"/>
  <!-- Hub -->
  <circle cx="490" cy="288" r="8" fill="#9b59b6"/>
  <circle cx="490" cy="288" r="6" fill="#ddd"/>
<path d="M397.3,263.2 A96,96 0 0,1 582.7,312.8" fill="none" stroke="#9b59b6" stroke-width="7" stroke-linecap="round"/><path d="M66.6,237.1 A96,96 0 0,1 237.0,324.0" fill="none" stroke="#9b59b6" stroke-width="7" stroke-linecap="round"/><circle cx="148" cy="288" r="16" fill="#9b59b6"/><circle cx="148" cy="288" r="10" fill="#ddd"/>
  <!-- Battery pack -->
  <rect x="340" y="210" width="52" height="55" rx="5" fill="#9b59b6"/>
  <rect x="344" y="214" width="44" height="47" rx="3" fill="none" stroke="rgba(255,255,255,0.3)" stroke-width="1.5"/>
  <text x="366" y="241" text-anchor="middle" fill="white" font-size="9" font-family="Arial" font-weight="bold">⚡</text><line x1="482" y1="234" x2="490" y2="288" stroke="#9b59b6" stroke-width="8" stroke-linecap="round"/><line x1="315" y1="288" x2="290" y2="152" stroke="#9b59b6" stroke-width="9" stroke-linecap="round"/><line x1="290" y1="152" x2="468" y2="194" stroke="#9b59b6" stroke-width="9" stroke-linecap="round"/><line x1="315" y1="288" x2="482" y2="234" stroke="#9b59b6" stroke-width="9" stroke-linecap="round"/><line x1="148" y1="288" x2="315" y2="288" stroke="#9b59b6" stroke-width="8" stroke-linecap="round"/><line x1="148" y1="288" x2="290" y2="152" stroke="#9b59b6" stroke-width="7" stroke-linecap="round"/><line x1="468" y1="194" x2="482" y2="234" stroke="#9b59b6" stroke-width="8" stroke-linecap="round"/>
  <circle cx="315" cy="288" r="20" fill="none" stroke="#9b59b6" stroke-width="5"/>
  <circle cx="315" cy="288" r="12" fill="none" stroke="#9b59b6" stroke-width="2.5"/>
  <circle cx="315" cy="288" r="5" fill="#9b59b6"/><line x1="315" y1="288" x2="148" y2="288" stroke="#666" stroke-width="3" stroke-dasharray="4,3"/><line x1="290" y1="152" x2="288" y2="126" stroke="#555" stroke-width="7" stroke-linecap="round"/>
  <g transform="translate(286,124) rotate(-4)">
    <rect x="-22" y="-5" width="44" height="9" rx="4" fill="#333"/>
    <rect x="-18" y="-8" width="36" height="6" rx="3" fill="#555"/>
  </g><line x1="468" y1="194" x2="478" y2="170" stroke="#555" stroke-width="6" stroke-linecap="round"/>
  <!-- Upright handlebar -->
  <line x1="458" y1="178" x2="498" y2="178" stroke="#444" stroke-width="6" stroke-linecap="round"/>
  <path d="M458,178 Q456,172 462,170" fill="none" stroke="#444" stroke-width="5" stroke-linecap="round"/>
  <path d="M498,178 Q500,172 494,170" fill="none" stroke="#444" stroke-width="5" stroke-linecap="round"/>
  <line x1="478" y1="170" x2="478" y2="194" stroke="#444" stroke-width="5" stroke-linecap="round"/><circle cx="480" cy="206" r="8" fill="#f1c40f" opacity="0.8"/><circle cx="480" cy="206" r="5" fill="white"/><text x="320" y="395" text-anchor="middle" fill="rgba(255,255,255,0.5)" font-size="13" font-family="Arial" font-weight="bold">ELECTRIC BIKE</text>
</svg>