<svg xmlns="http://www.w3.org/2000/svg" viewBox="0 0 640 400" width="640" height="400">
  <defs>
    <linearGradient id="bmx-bg" x1="0%" y1="0%" x2="100%" y2="100%">
      <stop offset="0%" stop-color="#2d2000"/>
      <stop offset="100%" stop-color="#1a1200"/>
    </linearGradient>
    <filter id="bmx-shadow">
      <feDropShadow dx="0" dy="4" stdDeviation="8" flood-color="rgba(0,0,0,0.5)"/>
    </filter>
  </defs>
  <rect width="640" height="400" fill="url(#bmx-bg)"/>
<ellipse cx="320" cy="378" rx="160" ry="10" fill="rgba(0,0,0,0.3)"/>
  <!-- Tire -->
  <circle cx="200" cy="310" r="72" fill="none" stroke="#1c1c1c" stroke-width="8"/>
  <!-- Rim -->
  <circle cx="200" cy="310" r="68" fill="none" stroke="#f39c12" stroke-width="4"/>
  <line x1="206.0" y1="310.0" x2="268.0" y2="310.0" stroke="#888" stroke-width="1.5"/>
<line x1="204.9" y1="313.5" x2="255.0" y2="350.0" stroke="#888" stroke-width="1.5"/>
<line x1="201.9" y1="315.7" x2="221.0" y2="374.7" stroke="#888" stroke-width="1.5"/>
<line x1="198.1" y1="315.7" x2="179.0" y2="374.7" stroke="#888" stroke-width="1.5"/>
<line x1="195.1" y1="313.5" x2="145.0" y2="350.0" stroke="#888" stroke-width="1.5"/>
<line x1="194.0" y1="310.0" x2="132.0" y2="310.0" stroke="#888" stroke-width="1.5"/>
<line x1="195.1" y1="306.5" x2="145.0" y2="270.0" stroke="#888" stroke-width="1.5"/>
<line x1="198.1" y1="304.3" x2="179.0" y2="245.3" stroke="#888" stroke-width="1.5"/>
<line x1="201.9" y1="304.3" x2="221.0" y2="245.3" stroke="#888" stroke-width="1.5"/>
<line x1="204.9" y1="306.5" x2="255.0" y2="270.0" stroke="#888" stroke-width="1.5"/>
  <!-- Hub -->
  <circle cx="200" cy="310" r="6" fill="#f39c12"/>
  <circle cx="200" cy="310" r="4" fill="#ddd"/>

  <!-- Tire -->
  <circle cx="430" cy="310" r="72" fill="none" stroke="#1c1c1c" stroke-width="8"/>
  <!-- Rim -->
  <circle cx="430" cy="310" r="68" fill="none" stroke="#f39c12" stroke-width="4"/>
  <line x1="436.0" y1="310.0" x2="498.0" y2="310.0" stroke="#888" stroke-width="1.5"/>
<line x1="434.9" y1="313.5" x2="485.0" y2="350.0" stroke="#888" stroke-width="1.5"/>
<line x1="431.9" y1="315.7" x2="451.0" y2="374.7" stroke="#888" stroke-width="1.5"/>
<line x1="428.1" y1="315.7" x2="409.0" y2="374.7" stroke="#888" stroke-width="1.5"/>
<line x1="425.1" y1="313.5" x2="375.0" y2="350.0" stroke="#888" stroke-width="1.5"/>
<line x1="424.0" y1="310.0" x2="362.0" y2="310.0" stroke="#888" stroke-width="1.5"/>
<line x1="425.1" y1="306.5" x2="375.0" y2="270.0" stroke="#888" stroke-width="1.5"/>
<line x1="428.1" y1="304.3" x2="409.0" y2="245.3" stroke="#888" stroke-width="1.5"/>
<line x1="431.9" y1="304.3" x2="451.0" y2="245.3" stroke="#888" stroke-width="1.5"/>
<line x1="434.9" y1="306.5" x2="485.0" y2="270.0" stroke="#888" stroke-width="1.5"/>
  <!-- Hub -->
  <circle cx="430" cy="310" r="6" fill="#f39c12"/>
  <circle cx="430" cy="310" r="4" fill="#ddd"/>
<line x1="420" y1="260" x2="430" y2="310" stroke="#f39c12" stroke-width="8" stroke-linecap="round"/><line x1="325" y1="310" x2="310" y2="200" stroke="#f39c12" stroke-width="10" stroke-linecap="round"/><line x1="310" y1="200" x2="408" y2="218" stroke="#f39c12" stroke-width="10" stroke-linecap="round"/><line x1="325" y1="310" x2="420" y2="260" stroke="#f39c12" stroke-width="10" stroke-linecap="round"/><line x1="200" y1="310" x2="325" y2="310" stroke="#f39c12" stroke-width="9" stroke-linecap="round"/><line x1="200" y1="310" x2="310" y2="200" stroke="#f39c12" stroke-width="8" stroke-linecap="round"/><line x1="408" y1="218" x2="420" y2="260" stroke="#f39c12" stroke-width="9" stroke-linecap="round"/><rect x="196" y="292" width="8" height="36" rx="3" fill="#888"/><rect x="426" y="292" width="8" height="36" rx="3" fill="#888"/>
  <circle cx="325" cy="310" r="18" fill="none" stroke="#f39c12" stroke-width="5"/>
  <circle cx="325" cy="310" r="10" fill="none" stroke="#f39c12" stroke-width="2.5"/>
  <circle cx="325" cy="310" r="5" fill="#f39c12"/><line x1="325" y1="310" x2="200" y2="310" stroke="#666" stroke-width="4" stroke-dasharray="4,3"/><line x1="310" y1="200" x2="310" y2="182" stroke="#555" stroke-width="7" stroke-linecap="round"/>
  <g transform="translate(310,180) rotate(0)">
    <rect x="-22" y="-5" width="44" height="9" rx="4" fill="#333"/>
    <rect x="-18" y="-8" width="36" height="6" rx="3" fill="#555"/>
  </g><line x1="408" y1="218" x2="412" y2="196" stroke="#555" stroke-width="7" stroke-linecap="round"/>
  <!-- Flat handlebar -->
  <line x1="376" y1="196" x2="448" y2="196" stroke="#444" stroke-width="6" stroke-linecap="round"/>
  <line x1="412" y1="196" x2="412" y2="218" stroke="#444" stroke-width="5" stroke-linecap="round"/><text x="320" y="395" text-anchor="middle" fill="rgba(255,255,255,0.5)" font-size="13" font-family="Arial" font-weight="bold">BMX</text>
</svg>