<svg xmlns="http://www.w3.org/2000/svg" viewBox="0 0 640 400" width="640" height="400">
  <defs>
    <linearGradient id="mtn-bg" x1="0%" y1="0%" x2="100%" y2="100%">
      <stop offset="0%" stop-color="#1a2d1a"/>
      <stop offset="100%" stop-color="#0d1a0d"/>
    </linearGradient>
    <filter id="mtn-shadow">
      <feDropShadow dx="0" dy="4" stdDeviation="8" flood-color="rgba(0,0,0,0.5)"/>
    </filter>
  </defs>
  <rect width="640" height="400" fill="url(#mtn-bg)"/>
<ellipse cx="320" cy="370" rx="200" ry="12" fill="rgba(0,0,0,0.3)"/>
  <!-- Tire -->
  <circle cx="148" cy="288" r="95" fill="none" stroke="#1c1c1c" stroke-width="6"/>
  <!-- Rim -->
  <circle cx="148" cy="288" r="90" fill="none" stroke="#27ae60" stroke-width="3"/>
  <line x1="156.0" y1="288.0" x2="238.0" y2="288.0" stroke="#888" stroke-width="1.5"/>
<line x1="155.2" y1="291.5" x2="229.1" y2="327.0" stroke="#888" stroke-width="1.5"/>
<line x1="153.0" y1="294.3" x2="204.1" y2="358.4" stroke="#888" stroke-width="1.5"/>
<line x1="149.8" y1="295.8" x2="168.0" y2="375.7" stroke="#888" stroke-width="1.5"/>
<line x1="146.2" y1="295.8" x2="128.0" y2="375.7" stroke="#888" stroke-width="1.5"/>
<line x1="143.0" y1="294.3" x2="91.9" y2="358.4" stroke="#888" stroke-width="1.5"/>
<line x1="140.8" y1="291.5" x2="66.9" y2="327.0" stroke="#888" stroke-width="1.5"/>
<line x1="140.0" y1="288.0" x2="58.0" y2="288.0" stroke="#888" stroke-width="1.5"/>
<line x1="140.8" y1="284.5" x2="66.9" y2="249.0" stroke="#888" stroke-width="1.5"/>
<line x1="143.0" y1="281.7" x2="91.9" y2="217.6" stroke="#888" stroke-width="1.5"/>
<line x1="146.2" y1="280.2" x2="128.0" y2="200.3" stroke="#888" stroke-width="1.5"/>
<line x1="149.8" y1="280.2" x2="168.0" y2="200.3" stroke="#888" stroke-width="1.5"/>
<line x1="153.0" y1="281.7" x2="204.1" y2="217.6" stroke="#888" stroke-width="1.5"/>
<line x1="155.2" y1="284.5" x2="229.1" y2="249.0" stroke="#888" stroke-width="1.5"/>
  <!-- Hub -->
  <circle cx="148" cy="288" r="8" fill="#27ae60"/>
  <circle cx="148" cy="288" r="6" fill="#ddd"/>

  <!-- Tire -->
  <circle cx="488" cy="288" r="95" fill="none" stroke="#1c1c1c" stroke-width="6"/>
  <!-- Rim -->
  <circle cx="488" cy="288" r="90" fill="none" stroke="#27ae60" stroke-width="3"/>
  <line x1="496.0" y1="288.0" x2="578.0" y2="288.0" stroke="#888" stroke-width="1.5"/>
<line x1="495.2" y1="291.5" x2="569.1" y2="327.0" stroke="#888" stroke-width="1.5"/>
<line x1="493.0" y1="294.3" x2="544.1" y2="358.4" stroke="#888" stroke-width="1.5"/>
<line x1="489.8" y1="295.8" x2="508.0" y2="375.7" stroke="#888" stroke-width="1.5"/>
<line x1="486.2" y1="295.8" x2="468.0" y2="375.7" stroke="#888" stroke-width="1.5"/>
<line x1="483.0" y1="294.3" x2="431.9" y2="358.4" stroke="#888" stroke-width="1.5"/>
<line x1="480.8" y1="291.5" x2="406.9" y2="327.0" stroke="#888" stroke-width="1.5"/>
<line x1="480.0" y1="288.0" x2="398.0" y2="288.0" stroke="#888" stroke-width="1.5"/>
<line x1="480.8" y1="284.5" x2="406.9" y2="249.0" stroke="#888" stroke-width="1.5"/>
<line x1="483.0" y1="281.7" x2="431.9" y2="217.6" stroke="#888" stroke-width="1.5"/>
<line x1="486.2" y1="280.2" x2="468.0" y2="200.3" stroke="#888" stroke-width="1.5"/>
<line x1="489.8" y1="280.2" x2="508.0" y2="200.3" stroke="#888" stroke-width="1.5"/>
<line x1="493.0" y1="281.7" x2="544.1" y2="217.6" stroke="#888" stroke-width="1.5"/>
<line x1="495.2" y1="284.5" x2="569.1" y2="249.0" stroke="#888" stroke-width="1.5"/>
  <!-- Hub -->
  <circle cx="488" cy="288" r="8" fill="#27ae60"/>
  <circle cx="488" cy="288" r="6" fill="#ddd"/>

  <line x1="473.4" y1="230" x2="486.4" y2="288" stroke="#27ae60" stroke-width="7" stroke-linecap="round"/>
  <line x1="476.6" y1="230" x2="489.6" y2="288" stroke="#27ae60" stroke-width="7" stroke-linecap="round"/>
  <rect x="467.4" y="253" width="12" height="12" rx="3" fill="#27ae60"/>
  <rect x="470.6" y="253" width="12" height="12" rx="3" fill="#27ae60"/><line x1="310" y1="288" x2="280" y2="148" stroke="#27ae60" stroke-width="9" stroke-linecap="round"/><line x1="280" y1="148" x2="462" y2="192" stroke="#27ae60" stroke-width="9" stroke-linecap="round"/><line x1="310" y1="288" x2="475" y2="230" stroke="#27ae60" stroke-width="9" stroke-linecap="round"/><line x1="148" y1="288" x2="310" y2="288" stroke="#27ae60" stroke-width="8" stroke-linecap="round"/><line x1="148" y1="288" x2="280" y2="148" stroke="#27ae60" stroke-width="7" stroke-linecap="round"/><line x1="462" y1="192" x2="475" y2="230" stroke="#27ae60" stroke-width="8" stroke-linecap="round"/>
  <circle cx="310" cy="288" r="22" fill="none" stroke="#27ae60" stroke-width="5"/>
  <circle cx="310" cy="288" r="14" fill="none" stroke="#27ae60" stroke-width="2.5"/>
  <circle cx="310" cy="288" r="5" fill="#27ae60"/><line x1="310" y1="288" x2="148" y2="288" stroke="#666" stroke-width="3" stroke-dasharray="4,3"/><line x1="280" y1="148" x2="276" y2="120" stroke="#555" stroke-width="7" stroke-linecap="round"/>
  <g transform="translate(274,118) rotate(-6)">
    <rect x="-22" y="-5" width="44" height="9" rx="4" fill="#333"/>
    <rect x="-18" y="-8" width="36" height="6" rx="3" fill="#555"/>
  </g><line x1="462" y1="192" x2="470" y2="172" stroke="#555" stroke-width="6" stroke-linecap="round"/>
  <!-- Flat handlebar -->
  <line x1="440" y1="172" x2="500" y2="172" stroke="#444" stroke-width="6" stroke-linecap="round"/>
  <line x1="470" y1="172" x2="470" y2="194" stroke="#444" stroke-width="5" stroke-linecap="round"/><text x="320" y="395" text-anchor="middle" fill="rgba(255,255,255,0.5)" font-size="13" font-family="Arial" font-weight="bold">MOUNTAIN BIKE</text>
</svg>