<svg xmlns="http://www.w3.org/2000/svg" viewBox="0 0 640 400" width="640" height="400">
  <defs>
    <linearGradient id="rd-bg" x1="0%" y1="0%" x2="100%" y2="100%">
      <stop offset="0%" stop-color="#2d1a1a"/>
      <stop offset="100%" stop-color="#190d0d"/>
    </linearGradient>
    <filter id="rd-shadow">
      <feDropShadow dx="0" dy="4" stdDeviation="8" flood-color="rgba(0,0,0,0.5)"/>
    </filter>
  </defs>
  <rect width="640" height="400" fill="url(#rd-bg)"/>
<ellipse cx="320" cy="374" rx="200" ry="12" fill="rgba(0,0,0,0.3)"/>
  <!-- Tire -->
  <circle cx="145" cy="292" r="84" fill="none" stroke="#1c1c1c" stroke-width="4"/>
  <!-- Rim -->
  <circle cx="145" cy="292" r="80" fill="none" stroke="#e74c3c" stroke-width="2"/>
  <line x1="151.0" y1="292.0" x2="225.0" y2="292.0" stroke="#888" stroke-width="1.5"/>
<line x1="150.5" y1="294.3" x2="218.9" y2="322.6" stroke="#888" stroke-width="1.5"/>
<line x1="149.2" y1="296.2" x2="201.6" y2="348.6" stroke="#888" stroke-width="1.5"/>
<line x1="147.3" y1="297.5" x2="175.6" y2="365.9" stroke="#888" stroke-width="1.5"/>
<line x1="145.0" y1="298.0" x2="145.0" y2="372.0" stroke="#888" stroke-width="1.5"/>
<line x1="142.7" y1="297.5" x2="114.4" y2="365.9" stroke="#888" stroke-width="1.5"/>
<line x1="140.8" y1="296.2" x2="88.4" y2="348.6" stroke="#888" stroke-width="1.5"/>
<line x1="139.5" y1="294.3" x2="71.1" y2="322.6" stroke="#888" stroke-width="1.5"/>
<line x1="139.0" y1="292.0" x2="65.0" y2="292.0" stroke="#888" stroke-width="1.5"/>
<line x1="139.5" y1="289.7" x2="71.1" y2="261.4" stroke="#888" stroke-width="1.5"/>
<line x1="140.8" y1="287.8" x2="88.4" y2="235.4" stroke="#888" stroke-width="1.5"/>
<line x1="142.7" y1="286.5" x2="114.4" y2="218.1" stroke="#888" stroke-width="1.5"/>
<line x1="145.0" y1="286.0" x2="145.0" y2="212.0" stroke="#888" stroke-width="1.5"/>
<line x1="147.3" y1="286.5" x2="175.6" y2="218.1" stroke="#888" stroke-width="1.5"/>
<line x1="149.2" y1="287.8" x2="201.6" y2="235.4" stroke="#888" stroke-width="1.5"/>
<line x1="150.5" y1="289.7" x2="218.9" y2="261.4" stroke="#888" stroke-width="1.5"/>
  <!-- Hub -->
  <circle cx="145" cy="292" r="6" fill="#e74c3c"/>
  <circle cx="145" cy="292" r="4" fill="#ddd"/>

  <!-- Tire -->
  <circle cx="495" cy="292" r="84" fill="none" stroke="#1c1c1c" stroke-width="4"/>
  <!-- Rim -->
  <circle cx="495" cy="292" r="80" fill="none" stroke="#e74c3c" stroke-width="2"/>
  <line x1="501.0" y1="292.0" x2="575.0" y2="292.0" stroke="#888" stroke-width="1.5"/>
<line x1="500.5" y1="294.3" x2="568.9" y2="322.6" stroke="#888" stroke-width="1.5"/>
<line x1="499.2" y1="296.2" x2="551.6" y2="348.6" stroke="#888" stroke-width="1.5"/>
<line x1="497.3" y1="297.5" x2="525.6" y2="365.9" stroke="#888" stroke-width="1.5"/>
<line x1="495.0" y1="298.0" x2="495.0" y2="372.0" stroke="#888" stroke-width="1.5"/>
<line x1="492.7" y1="297.5" x2="464.4" y2="365.9" stroke="#888" stroke-width="1.5"/>
<line x1="490.8" y1="296.2" x2="438.4" y2="348.6" stroke="#888" stroke-width="1.5"/>
<line x1="489.5" y1="294.3" x2="421.1" y2="322.6" stroke="#888" stroke-width="1.5"/>
<line x1="489.0" y1="292.0" x2="415.0" y2="292.0" stroke="#888" stroke-width="1.5"/>
<line x1="489.5" y1="289.7" x2="421.1" y2="261.4" stroke="#888" stroke-width="1.5"/>
<line x1="490.8" y1="287.8" x2="438.4" y2="235.4" stroke="#888" stroke-width="1.5"/>
<line x1="492.7" y1="286.5" x2="464.4" y2="218.1" stroke="#888" stroke-width="1.5"/>
<line x1="495.0" y1="286.0" x2="495.0" y2="212.0" stroke="#888" stroke-width="1.5"/>
<line x1="497.3" y1="286.5" x2="525.6" y2="218.1" stroke="#888" stroke-width="1.5"/>
<line x1="499.2" y1="287.8" x2="551.6" y2="235.4" stroke="#888" stroke-width="1.5"/>
<line x1="500.5" y1="289.7" x2="568.9" y2="261.4" stroke="#888" stroke-width="1.5"/>
  <!-- Hub -->
  <circle cx="495" cy="292" r="6" fill="#e74c3c"/>
  <circle cx="495" cy="292" r="4" fill="#ddd"/>
<line x1="483" y1="238" x2="495" y2="292" stroke="#e74c3c" stroke-width="6" stroke-linecap="round"/><line x1="312" y1="292" x2="287" y2="152" stroke="#e74c3c" stroke-width="8" stroke-linecap="round"/><line x1="287" y1="152" x2="470" y2="195" stroke="#e74c3c" stroke-width="8" stroke-linecap="round"/><line x1="312" y1="292" x2="483" y2="238" stroke="#e74c3c" stroke-width="8" stroke-linecap="round"/><line x1="145" y1="292" x2="312" y2="292" stroke="#e74c3c" stroke-width="7" stroke-linecap="round"/><line x1="145" y1="292" x2="287" y2="152" stroke="#e74c3c" stroke-width="6" stroke-linecap="round"/><line x1="470" y1="195" x2="483" y2="238" stroke="#e74c3c" stroke-width="7" stroke-linecap="round"/>
  <circle cx="312" cy="292" r="24" fill="none" stroke="#e74c3c" stroke-width="5"/>
  <circle cx="312" cy="292" r="16" fill="none" stroke="#e74c3c" stroke-width="2.5"/>
  <circle cx="312" cy="292" r="5" fill="#e74c3c"/><line x1="312" y1="292" x2="145" y2="292" stroke="#666" stroke-width="3" stroke-dasharray="4,3"/><line x1="287" y1="152" x2="289" y2="128" stroke="#555" stroke-width="6" stroke-linecap="round"/>
  <g transform="translate(291,126) rotate(-2)">
    <rect x="-22" y="-5" width="44" height="9" rx="4" fill="#333"/>
    <rect x="-18" y="-8" width="36" height="6" rx="3" fill="#555"/>
  </g><line x1="470" y1="195" x2="484" y2="177" stroke="#555" stroke-width="6" stroke-linecap="round"/>
  <!-- Drop handlebar -->
  <path d="M472,177 Q466,185 466,195 Q466,205 474,205" 
        fill="none" stroke="#444" stroke-width="5" stroke-linecap="round"/>
  <path d="M496,177 Q502,185 502,195 Q502,205 494,205" 
        fill="none" stroke="#444" stroke-width="5" stroke-linecap="round"/>
  <line x1="472" y1="177" x2="496" y2="177" stroke="#444" stroke-width="5" stroke-linecap="round"/><text x="320" y="395" text-anchor="middle" fill="rgba(255,255,255,0.5)" font-size="13" font-family="Arial" font-weight="bold">ROAD BIKE</text>
</svg>